<svg data-generated="boss_icons.py" xmlns="http://www.w3.org/2000/svg" viewBox="0 0 64 64"><defs><linearGradient id="g1" x1="0.2" y1="0" x2="0.8" y2="1"><stop offset="0" stop-color="#9bbfff"/><stop offset=".55" stop-color="#4a8aff"/><stop offset="1" stop-color="#0048cc"/></linearGradient><linearGradient id="g2" x1="0.2" y1="0" x2="0.8" y2="1"><stop offset="0" stop-color="#9bbfff"/><stop offset=".55" stop-color="#4a8aff"/><stop offset="1" stop-color="#0048cc"/></linearGradient><linearGradient id="g3" x1="0.2" y1="0" x2="0.8" y2="1"><stop offset="0" stop-color="#adcfff"/><stop offset=".55" stop-color="#6aa8ff"/><stop offset="1" stop-color="#005de0"/></linearGradient></defs><path d="M14 36 C12 46 16 52 12 60" fill="none" stroke="#0c1b34" stroke-width="6" stroke-linecap="round" stroke-linejoin="round"/><path d="M14 36 C12 46 16 52 12 60" fill="none" stroke="#3a7ae8" stroke-width="3" stroke-linecap="round" stroke-linejoin="round"/><path d="M26 38 C26 48 22 54 24 62" fill="none" stroke="#0c1b34" stroke-width="6" stroke-linecap="round" stroke-linejoin="round"/><path d="M26 38 C26 48 22 54 24 62" fill="none" stroke="#3a7ae8" stroke-width="3" stroke-linecap="round" stroke-linejoin="round"/><path d="M38 38 C40 48 36 54 40 62" fill="none" stroke="#0c1b34" stroke-width="6" stroke-linecap="round" stroke-linejoin="round"/><path d="M38 38 C40 48 36 54 40 62" fill="none" stroke="#3a7ae8" stroke-width="3" stroke-linecap="round" stroke-linejoin="round"/><path d="M50 36 C52 46 48 52 52 60" fill="none" stroke="#0c1b34" stroke-width="6" stroke-linecap="round" stroke-linejoin="round"/><path d="M50 36 C52 46 48 52 52 60" fill="none" stroke="#3a7ae8" stroke-width="3" stroke-linecap="round" stroke-linejoin="round"/><path d="M5 24 C5 13.0 27 13.0 27 24 C27 34.5 5 34.5 5 24 Z" fill="url(#g1)" stroke="#071c41" stroke-width="2" stroke-linejoin="round" stroke-linecap="round"/><path d="M37 24 C37 13.0 59 13.0 59 24 C59 34.5 37 34.5 37 24 Z" fill="url(#g2)" stroke="#071c41" stroke-width="2" stroke-linejoin="round" stroke-linecap="round"/><path d="M19 18 C19 4.799999999999999 45 4.799999999999999 45 18 C45 30.6 19 30.6 19 18 Z" fill="url(#g3)" stroke="#082247" stroke-width="2" stroke-linejoin="round" stroke-linecap="round"/><rect x="26.0" y="20.5" width="4" height="3" rx="1" fill="#ffd23a"/><rect x="34.0" y="20.5" width="4" height="3" rx="1" fill="#ffd23a"/><rect x="11.5" y="25.0" width="3" height="2" rx="1" fill="#ffd23a"/><rect x="17.5" y="25.0" width="3" height="2" rx="1" fill="#ffd23a"/><rect x="43.5" y="25.0" width="3" height="2" rx="1" fill="#ffd23a"/><rect x="49.5" y="25.0" width="3" height="2" rx="1" fill="#ffd23a"/></svg>
