<svg data-generated="goods_icons.py" xmlns="http://www.w3.org/2000/svg" viewBox="0 0 64 64"><defs><linearGradient id="g1" x1="0.1" y1="0" x2="0.9" y2="1"><stop offset="0" stop-color="#ff9a9a"/><stop offset=".55" stop-color="#e2343e"/><stop offset="1" stop-color="#8a1420"/></linearGradient><linearGradient id="g2" x1="0.0" y1="0.0" x2="1.0" y2="1.0"><stop offset="0" stop-color="#d0f7a0"/><stop offset=".55" stop-color="#5cc24a"/><stop offset="1" stop-color="#28782c"/></linearGradient></defs><path d="M32 20 C38 14 52 14 54 30 C56 44 46 58 38 56 C35 55 34 54 32 54 C30 54 29 55 26 56 C18 58 8 44 10 30 C12 14 26 14 32 20 Z" fill="url(#g1)" stroke="#2c0608" stroke-width="2" stroke-linejoin="round" stroke-linecap="round"/><path d="M32 22 C32 16 34 10 38 7" fill="none" stroke="#4a2a14" stroke-width="2.8" stroke-linecap="round" stroke-linejoin="round"/><g transform="translate(36 12) rotate(-25)"><path d="M0 0 C4.4 -5 9.9 -3.8 13.2 0 C9.9 3.8 4.4 5 0 0 Z" fill="url(#g2)" stroke="#0c2c10" stroke-width="1.6" stroke-linejoin="round" stroke-linecap="round"/></g><path d="M16 30 C16 25 19 21 23 20" fill="none" stroke="#ffffff" stroke-width="2.8" stroke-linecap="round" stroke-linejoin="round" opacity="0.8"/></svg>
