<svg data-generated="goods_icons.py" xmlns="http://www.w3.org/2000/svg" viewBox="0 0 64 64"><defs><radialGradient id="g1" cx="0.4" cy="0.4" r="0.8"><stop offset="0" stop-color="#d8d0a0"/><stop offset=".55" stop-color="#8e8a5a"/><stop offset="1" stop-color="#4a4a2a"/></radialGradient><linearGradient id="g2" x1="0.0" y1="0.0" x2="1.0" y2="1.0"><stop offset="0" stop-color="#d8d0a0"/><stop offset=".55" stop-color="#8e8a5a"/><stop offset="1" stop-color="#4a4a2a"/></linearGradient><linearGradient id="g3" x1="0.0" y1="0.0" x2="1.0" y2="1.0"><stop offset="0" stop-color="#ff9aac"/><stop offset=".55" stop-color="#d23c5c"/><stop offset="1" stop-color="#7a1834"/></linearGradient><radialGradient id="g4" cx="0.38" cy="0.32" r="0.75"><stop offset="0" stop-color="#fff2a6"/><stop offset=".55" stop-color="#f6b62e"/><stop offset="1" stop-color="#b0600c"/></radialGradient><radialGradient id="g5" cx="0.38" cy="0.32" r="0.75"><stop offset="0" stop-color="#fff2a6"/><stop offset=".55" stop-color="#f6b62e"/><stop offset="1" stop-color="#b0600c"/></radialGradient><radialGradient id="g6" cx="0.38" cy="0.32" r="0.75"><stop offset="0" stop-color="#fff2a6"/><stop offset=".55" stop-color="#f6b62e"/><stop offset="1" stop-color="#b0600c"/></radialGradient></defs><g transform="translate(32 60) scale(1.0) translate(-32 -60)"><path d="M18 24 C10 32 8 44 12 52 C16 58 48 58 52 52 C56 44 54 32 46 24 Z" fill="url(#g1)" stroke="#1a1a0a" stroke-width="2" stroke-linejoin="round" stroke-linecap="round"/><path d="M20 12 L26 18 L32 12 L38 18 L44 12 L46 24 L18 24 Z" fill="url(#g2)" stroke="#1a1a0a" stroke-width="2" stroke-linejoin="round" stroke-linecap="round"/><rect x="16" y="22" width="32" height="5" rx="2" fill="url(#g3)" stroke="#2a0814" stroke-width="1.4"/><ellipse cx="32" cy="42" rx="7" ry="7" fill="url(#g4)" stroke="#3a1e06" stroke-width="1.6"/><ellipse cx="20" cy="48" rx="5" ry="5" fill="url(#g5)" stroke="#3a1e06" stroke-width="1.4"/><ellipse cx="44" cy="48" rx="5" ry="5" fill="url(#g6)" stroke="#3a1e06" stroke-width="1.4"/><path d="M16 38 C17 33 19 30 22 28" fill="none" stroke="#ffffff" stroke-width="2.4" stroke-linecap="round" stroke-linejoin="round" opacity="0.8"/></g></svg>
