<svg xmlns="http://www.w3.org/2000/svg" viewBox="0 0 16 16" shape-rendering="crispEdges"><path fill="#161a24" d="M14 0h1v1h-1zM13 1h1v1h-1zM15 1h1v1h-1zM12 2h1v1h-1zM14 2h1v1h-1zM11 3h1v1h-1zM13 3h1v1h-1zM10 4h1v1h-1zM13 4h1v1h-1zM9 5h1v1h-1zM12 5h1v1h-1zM8 6h1v1h-1zM11 6h1v1h-1zM7 7h1v1h-1zM10 7h1v1h-1zM9 8h1v1h-1zM8 9h1v1h-1z"/><path fill="#76819a" d="M14 1h1v1h-1zM13 2h1v1h-1zM12 3h1v1h-1zM7 8h1v1h-1z"/><path fill="#b8c2d2" d="M11 4h1v1h-1zM10 5h1v1h-1zM9 6h1v1h-1zM8 7h1v1h-1z"/><path fill="#474f64" d="M12 4h1v1h-1zM11 5h1v1h-1zM10 6h1v1h-1zM9 7h1v1h-1zM8 8h1v1h-1z"/><path fill="#4a1004" d="M3 5h1v1h-1zM2 6h1v1h-1zM4 6h2v1h-2zM3 7h1v1h-1zM6 7h1v1h-1zM3 8h1v1h-1zM4 9h2v1h-2zM9 10h1v1h-1zM1 11h2v1h-2zM7 11h1v1h-1zM10 11h1v1h-1zM0 12h1v1h-1zM8 12h2v1h-2zM11 12h1v1h-1zM0 13h1v1h-1zM10 13h1v1h-1zM1 14h2v1h-2z"/><path fill="#ffa032" d="M3 6h1v1h-1zM5 7h1v1h-1zM4 8h1v1h-1zM6 8h1v1h-1zM7 10h2v1h-2zM8 11h2v1h-2zM2 12h1v1h-1zM10 12h1v1h-1zM1 13h1v1h-1z"/><path fill="#fff08a" d="M4 7h1v1h-1zM1 12h1v1h-1z"/><path fill="#e0481a" d="M5 8h1v1h-1zM2 13h1v1h-1z"/><path fill="#ffb4bc" d="M6 9h1v1h-1z"/><path fill="#ec3450" d="M7 9h1v1h-1z"/><path fill="#140a06" d="M4 10h1v1h-1zM3 11h1v1h-1zM5 11h1v1h-1zM4 12h1v1h-1zM3 13h1v1h-1z"/><path fill="#5e4232" d="M5 10h1v1h-1zM4 11h1v1h-1zM3 12h1v1h-1z"/><path fill="#34040e" d="M6 10h1v1h-1z"/></svg>
