<svg xmlns="http://www.w3.org/2000/svg" viewBox="0 0 32 32" shape-rendering="crispEdges"><path fill="#0b0816" style="fill-opacity:var(--pk-shadow,.32)" d="M29 14h1v1h-1zM30 16h1v1h-1zM30 17h1v1h-1zM31 19h1v1h-1zM31 20h1v1h-1zM31 21h1v1h-1zM31 22h1v1h-1zM31 23h1v1h-1zM31 24h1v1h-1zM31 25h1v1h-1zM30 26h2v1h-2zM3 27h1v1h-1zM28 27h3v1h-3zM5 28h1v1h-1zM26 28h3v1h-3zM7 29h4v1h-4zM21 29h6v1h-6zM12 30h10v1h-10z"/><path fill="#080602" d="M12 6h8v1h-8zM10 7h2v1h-2zM20 7h2v1h-2zM8 8h2v1h-2zM22 8h2v1h-2zM7 9h1v1h-1zM24 9h1v1h-1zM6 10h1v1h-1zM25 10h1v1h-1zM5 11h1v1h-1zM26 11h1v1h-1zM4 12h1v1h-1zM27 12h1v1h-1zM3 13h1v1h-1zM28 13h1v1h-1zM3 14h1v1h-1zM28 14h1v1h-1zM2 15h1v1h-1zM29 15h1v1h-1zM2 16h1v1h-1zM29 16h1v1h-1zM2 17h1v1h-1zM29 17h1v1h-1zM1 18h1v1h-1zM30 18h1v1h-1zM1 19h1v1h-1zM30 19h1v1h-1zM1 20h1v1h-1zM30 20h1v1h-1zM1 21h1v1h-1zM30 21h1v1h-1zM1 22h1v1h-1zM30 22h1v1h-1zM1 23h1v1h-1zM30 23h1v1h-1zM1 24h1v1h-1zM30 24h1v1h-1zM1 25h1v1h-1zM30 25h1v1h-1zM2 26h2v1h-2zM28 26h2v1h-2zM4 27h2v1h-2zM26 27h2v1h-2zM6 28h5v1h-5zM21 28h5v1h-5zM11 29h10v1h-10z"/><path fill="#d19843" d="M12 7h7v1h-7zM12 8h1v1h-1zM14 8h1v1h-1zM16 8h1v1h-1zM18 8h1v1h-1zM10 9h1v1h-1zM9 10h1v1h-1zM11 10h1v1h-1zM8 11h1v1h-1zM7 12h1v1h-1zM6 13h3v1h-3zM5 14h5v1h-5zM5 15h4v1h-4zM5 16h5v1h-5zM5 17h4v1h-4zM5 18h3v1h-3zM5 19h4v1h-4zM5 20h3v1h-3zM5 21h4v1h-4zM5 22h5v1h-5zM5 23h6v1h-6zM5 24h7v1h-7zM3 25h1v1h-1zM6 25h6v1h-6zM13 25h1v1h-1zM19 25h1v1h-1zM7 26h1v1h-1zM9 26h1v1h-1zM11 26h1v1h-1zM14 26h1v1h-1zM16 26h1v1h-1zM6 27h1v1h-1zM11 28h1v1h-1z"/><path fill="#ad731c" d="M19 7h1v1h-1zM13 8h1v1h-1zM15 8h1v1h-1zM17 8h1v1h-1zM19 8h2v1h-2zM12 9h8v1h-8zM21 9h2v1h-2zM10 10h1v1h-1zM12 10h8v1h-8zM22 10h1v1h-1zM9 11h1v1h-1zM12 11h3v1h-3zM16 11h1v1h-1zM18 11h1v1h-1zM8 12h1v1h-1zM13 12h1v1h-1zM23 13h1v1h-1zM22 14h1v1h-1zM9 15h1v1h-1zM22 16h1v1h-1zM23 17h1v1h-1zM8 18h1v1h-1zM23 19h1v1h-1zM8 20h1v1h-1zM9 21h1v1h-1zM22 22h1v1h-1zM21 23h1v1h-1zM20 24h1v1h-1zM5 25h1v1h-1zM12 25h1v1h-1zM18 25h1v1h-1zM5 26h2v1h-2zM8 26h1v1h-1zM10 26h1v1h-1zM12 26h2v1h-2zM15 26h1v1h-1zM17 26h3v1h-3zM7 27h6v1h-6zM14 27h1v1h-1zM16 27h1v1h-1zM18 27h1v1h-1z"/><path fill="#edbc71" d="M10 8h2v1h-2zM8 9h2v1h-2zM11 9h1v1h-1zM7 10h2v1h-2zM6 11h2v1h-2zM5 12h2v1h-2zM4 13h2v1h-2zM4 14h1v1h-1zM3 15h2v1h-2zM3 16h2v1h-2zM3 17h2v1h-2zM2 18h3v1h-3zM2 19h3v1h-3zM2 20h3v1h-3zM2 21h3v1h-3zM2 22h3v1h-3zM2 23h3v1h-3zM2 24h3v1h-3zM2 25h1v1h-1zM4 25h1v1h-1zM4 26h1v1h-1z"/><path fill="#845510" d="M21 8h1v1h-1zM20 9h1v1h-1zM23 9h1v1h-1zM21 10h1v1h-1zM23 10h2v1h-2zM15 11h1v1h-1zM17 11h1v1h-1zM19 11h1v1h-1zM22 11h4v1h-4zM18 12h1v1h-1zM23 12h4v1h-4zM24 13h3v1h-3zM23 14h3v1h-3zM22 15h5v1h-5zM23 16h4v1h-4zM24 17h3v1h-3zM23 18h4v1h-4zM24 19h3v1h-3zM23 20h4v1h-4zM22 21h5v1h-5zM23 22h4v1h-4zM22 23h5v1h-5zM21 24h6v1h-6zM20 25h7v1h-7zM20 26h2v1h-2zM23 26h1v1h-1zM25 26h1v1h-1zM13 27h1v1h-1zM15 27h1v1h-1zM17 27h1v1h-1zM19 27h2v1h-2zM12 28h8v1h-8z"/><path fill="#5a3a0b" d="M20 10h1v1h-1zM27 13h1v1h-1zM26 14h2v1h-2zM27 15h2v1h-2zM27 16h2v1h-2zM27 17h2v1h-2zM27 18h3v1h-3zM27 19h3v1h-3zM27 20h3v1h-3zM27 21h3v1h-3zM27 22h3v1h-3zM27 23h3v1h-3zM27 24h3v1h-3zM27 25h3v1h-3zM22 26h1v1h-1zM24 26h1v1h-1zM26 26h2v1h-2zM21 27h5v1h-5zM20 28h1v1h-1z"/><path fill="#865819" d="M10 11h2v1h-2zM9 12h1v1h-1zM22 12h1v1h-1zM9 13h1v1h-1zM22 13h1v1h-1zM21 14h1v1h-1z"/><path fill="#422b0b" d="M20 11h2v1h-2z"/><path fill="#030303" d="M10 12h2v1h-2zM20 12h2v1h-2zM10 13h2v1h-2zM20 13h2v1h-2zM17 16h1v1h-1zM14 17h1v1h-1zM16 17h3v1h-3zM15 18h3v1h-3zM14 19h3v1h-3zM13 20h3v1h-3zM17 20h1v1h-1zM14 21h1v1h-1z"/><path fill="#a57735" d="M12 12h1v1h-1z"/><path fill="#200e00" d="M14 12h4v1h-4zM12 13h2v1h-2zM18 13h2v1h-2zM11 14h1v1h-1zM20 14h1v1h-1zM10 15h1v1h-1zM21 15h1v1h-1zM10 16h1v1h-1zM21 16h1v1h-1zM9 17h1v1h-1zM22 17h1v1h-1zM9 18h1v1h-1zM22 18h1v1h-1zM9 19h1v1h-1zM22 19h1v1h-1zM9 20h1v1h-1zM22 20h1v1h-1zM10 21h1v1h-1zM21 21h1v1h-1zM10 22h1v1h-1zM21 22h1v1h-1zM11 23h1v1h-1zM20 23h1v1h-1zM12 24h2v1h-2zM18 24h2v1h-2zM14 25h4v1h-4z"/><path fill="#654110" d="M19 12h1v1h-1z"/><path fill="#ffc598" d="M14 13h1v1h-1zM12 14h2v1h-2zM11 15h1v1h-1zM11 16h1v1h-1z"/><path fill="#ffa763" d="M15 13h2v1h-2zM14 14h3v1h-3zM18 14h1v1h-1zM12 15h2v1h-2zM12 16h1v1h-1zM10 17h2v1h-2zM10 18h1v1h-1zM10 19h1v1h-1zM11 21h1v1h-1z"/><path fill="#ff892c" d="M17 13h1v1h-1zM17 14h1v1h-1zM19 14h1v1h-1zM18 15h2v1h-2zM19 16h1v1h-1zM11 18h1v1h-1zM11 19h1v1h-1zM10 20h2v1h-2zM12 21h1v1h-1z"/><path fill="#c19456" d="M10 14h1v1h-1z"/><path fill="#ec6600" d="M14 15h4v1h-4zM12 17h1v1h-1zM12 18h1v1h-1zM12 19h1v1h-1zM19 20h1v1h-1zM14 22h4v1h-4z"/><path fill="#e96700" d="M20 15h1v1h-1zM20 17h2v1h-2zM20 18h1v1h-1zM20 19h1v1h-1zM20 20h1v1h-1zM19 21h1v1h-1zM11 22h3v1h-3zM18 22h2v1h-2zM12 23h1v1h-1zM14 23h4v1h-4zM14 24h1v1h-1z"/><path fill="#bf6526" d="M13 16h1v1h-1z"/><path fill="#3f3d40" d="M14 16h3v1h-3zM13 17h1v1h-1zM15 17h1v1h-1zM13 18h2v1h-2zM13 19h1v1h-1z"/><path fill="#be5103" d="M18 16h1v1h-1zM13 21h1v1h-1zM18 21h1v1h-1z"/><path fill="#a34800" d="M20 16h1v1h-1zM21 18h1v1h-1zM21 19h1v1h-1zM21 20h1v1h-1zM20 21h1v1h-1zM20 22h1v1h-1zM13 23h1v1h-1zM18 23h2v1h-2zM15 24h3v1h-3z"/><path fill="#e97f2e" d="M19 17h1v1h-1zM19 18h1v1h-1zM19 19h1v1h-1z"/><path fill="#000000" d="M18 18h1v1h-1zM17 19h2v1h-2zM16 20h1v1h-1zM18 20h1v1h-1zM15 21h3v1h-3z"/><path fill="#b74e00" d="M12 20h1v1h-1z"/></svg>
