<svg xmlns="http://www.w3.org/2000/svg" viewBox="0 0 16 16" width="16" height="16" shape-rendering="crispEdges"><path fill="#000000" d="M6 0h6v1h-6zM5 1h2v1h-2zM11 1h4v1h-4zM5 2h1v1h-1zM9 2h1v1h-1zM15 2h1v1h-1zM5 3h1v1h-1zM8 3h1v1h-1zM11 3h2v1h-2zM15 3h1v1h-1zM5 4h1v1h-1zM15 4h1v1h-1zM5 5h1v1h-1zM8 5h1v1h-1zM15 5h1v1h-1zM6 6h1v1h-1zM8 6h1v1h-1zM14 6h1v1h-1zM5 7h1v1h-1zM9 7h1v1h-1zM14 7h1v1h-1zM5 8h1v1h-1zM8 8h2v1h-2zM14 8h1v1h-1zM4 9h1v1h-1zM8 9h1v1h-1zM10 9h3v1h-3zM15 9h1v1h-1zM1 10h3v1h-3zM7 10h1v1h-1zM9 10h1v1h-1zM15 10h1v1h-1zM0 11h1v1h-1zM5 11h1v1h-1zM7 11h1v1h-1zM10 11h1v1h-1zM15 11h1v1h-1zM0 12h1v1h-1zM8 12h1v1h-1zM13 12h2v1h-2zM0 13h1v1h-1zM3 13h1v1h-1zM12 13h1v1h-1zM1 14h3v1h-3zM10 14h2v1h-2zM4 15h6v1h-6z"/><path fill="#242424" d="M7 1h1v1h-1zM10 2h1v1h-1zM13 2h1v1h-1zM7 3h1v1h-1zM14 3h1v1h-1zM10 4h1v1h-1zM14 5h1v1h-1zM9 6h2v1h-2zM8 7h1v1h-1zM10 7h1v1h-1zM7 8h1v1h-1zM13 8h1v1h-1zM14 9h1v1h-1zM5 10h1v1h-1zM13 10h1v1h-1zM1 11h1v1h-1zM3 11h1v1h-1zM8 11h1v1h-1zM12 11h1v1h-1zM1 12h2v1h-2zM6 12h1v1h-1zM11 12h1v1h-1zM4 13h1v1h-1zM5 14h1v1h-1zM7 14h1v1h-1z"/><path fill="#343434" d="M8 1h1v1h-1zM11 2h1v1h-1zM9 3h1v1h-1zM11 4h1v1h-1zM13 4h1v1h-1zM9 5h1v1h-1zM13 6h1v1h-1zM7 7h1v1h-1zM11 7h1v1h-1zM10 8h1v1h-1zM14 10h1v1h-1zM11 11h1v1h-1zM4 12h2v1h-2zM12 12h1v1h-1zM9 13h1v1h-1zM11 13h1v1h-1zM6 14h1v1h-1zM9 14h1v1h-1z"/><path fill="#4a5356" d="M9 1h1v1h-1zM12 7h1v1h-1zM11 8h1v1h-1zM14 11h1v1h-1z"/><path fill="#040404" d="M10 1h1v1h-1zM8 2h1v1h-1zM4 11h1v1h-1zM3 12h1v1h-1z"/><path fill="#393939" d="M6 2h1v1h-1zM6 4h1v1h-1zM6 5h1v1h-1zM5 9h1v1h-1zM1 13h1v1h-1zM4 14h1v1h-1z"/><path fill="#151515" d="M7 2h1v1h-1zM14 2h1v1h-1zM10 3h1v1h-1zM13 3h1v1h-1zM6 8h1v1h-1zM7 9h1v1h-1zM6 10h1v1h-1zM9 12h1v1h-1zM2 13h1v1h-1zM7 13h1v1h-1z"/><path fill="#4b4b4b" d="M12 2h1v1h-1z"/><path fill="#513642" d="M6 3h1v1h-1zM7 4h1v1h-1zM14 4h1v1h-1zM7 6h1v1h-1zM6 7h1v1h-1zM13 9h1v1h-1zM6 11h1v1h-1zM13 11h1v1h-1zM8 13h1v1h-1zM10 13h1v1h-1zM8 14h1v1h-1z"/><path fill="#8e4e4d" d="M8 4h1v1h-1zM6 9h1v1h-1zM8 10h1v1h-1zM12 10h1v1h-1zM7 12h1v1h-1zM10 12h1v1h-1z"/><path fill="#d55248" d="M9 4h1v1h-1zM7 5h1v1h-1zM13 5h1v1h-1zM13 7h1v1h-1zM9 9h1v1h-1zM4 10h1v1h-1zM11 10h1v1h-1zM9 11h1v1h-1z"/><path fill="#67787e" d="M12 4h1v1h-1z"/><path fill="#ea9661" d="M10 5h1v1h-1zM12 5h1v1h-1zM12 6h1v1h-1zM10 10h1v1h-1z"/><path fill="#fffa81" d="M11 5h1v1h-1z"/><path fill="#3a3a3a" d="M11 6h1v1h-1zM5 13h1v1h-1z"/><path fill="#404040" d="M12 8h1v1h-1zM2 11h1v1h-1z"/><path fill="#000000" fill-opacity="0.251" d="M15 12h1v1h-1zM13 13h2v1h-2zM0 14h1v1h-1zM12 14h1v1h-1zM1 15h2v1h-2zM10 15h2v1h-2z"/><path fill="#505050" d="M6 13h1v1h-1z"/><path fill="#000000" fill-opacity="0.439" d="M3 15h1v1h-1z"/></svg>